#!OML:ASF E:\motion texture\Top Level 1\Subject 1\Session 1\male.ASF
:FULLY-SPECIFIED
:DEGREES
236
root 20.7349 16.9481 5.28965 66.8757 -73.7622 -59.257
lowerback 7.43821 2.27639 3.23426
upperback 1.87299 3.09605 -3.8048
thorax -1.83807 1.51042 -6.04855
lowerneck -15.8291 -4.87744 -11.4779
upperneck -3.27693 -5.26845 17.5923
head 2.47554 -2.13426 6.99295
rclavicle 5.40694e-014 -9.54166e-014
rhumerus 55.9906 23.2187 -66.2554
rradius 60.9803
rwrist 34.4786
rhand -42.8951 -37.0169
rfingers 7.12502
rthumb -15.7573 -66.3955
lclavicle 5.40694e-014 -9.54166e-014
lhumerus 48.3277 -20.9573 87.4381
lradius 56.2606
lwrist 24.2477
lhand -13.6035 42.6686
lfingers 7.12502
lthumb 12.5114 72.2741
rfemur -12.2307 -1.9813 38.5013
rtibia 43.1565
rfoot -19.9215 -9.32928
rtoes -6.80522
lfemur -45.1255 0.916957 2.27991
ltibia 26.4963
lfoot -2.14401 3.29068
ltoes -15.173
237
root 20.5451 16.9157 5.31118 66.989 -73.7503 -59.414
lowerback 7.49579 2.35519 3.20699
upperback 1.98945 3.19207 -3.92367
thorax -1.73118 1.5618 -6.16518
lowerneck -15.8227 -4.92941 -11.54
upperneck -3.25072 -5.33682 17.7176
head 2.50039 -2.16407 7.03836
rclavicle -1.82882e-014 6.36111e-015
rhumerus 55.4237 23.9509 -66.3209
rradius 61.2628
rwrist 34.4736
rhand -43.0318 -37.0521
rfingers 7.12502
rthumb -15.889 -66.4202
lclavicle -1.82882e-014 6.36111e-015
lhumerus 47.2154 -20.8996 87.8659
lradius 56.9371
lwrist 25.2055
lhand -13.5755 42.9826
lfingers 7.12502
lthumb 12.5384 72.5864
rfemur -12.2991 -2.33122 38.4463
rtibia 44.3319
rfoot -19.5391 -9.26494
rtoes -7.1044
lfemur -45.3254 0.795321 2.34721
ltibia 26.6011
lfoot -1.85706 3.03984
ltoes -14.8766
238
root 20.355 16.8848 5.33357 67.0408 -73.7396 -59.5109
lowerback 7.55472 2.43531 3.16986
upperback 2.10709 3.28922 -4.03734
thorax -1.62415 1.61377 -6.27084
lowerneck -15.8084 -4.98517 -11.6016
upperneck -3.22726 -5.4106 17.8389
head 2.52394 -2.19705 7.08194
rclavicle 3.10104e-014 -1.08139e-013
rhumerus 54.7968 24.7496 -66.3587
rradius 61.5565
rwrist 34.4062
rhand -43.1403 -37.053
rfingers 7.12502
rthumb -15.9935 -66.4128
lclavicle 3.10104e-014 -1.08139e-013
lhumerus 45.9993 -20.844 88.2797
lradius 57.656
lwrist 26.1879
lhand -13.5361 43.2955
lfingers 7.12502
lthumb 12.5764 72.8969
rfemur -12.4129 -2.68944 38.3714
rtibia 45.5395
rfoot -19.0773 -9.22782
rtoes -7.31113
lfemur -45.5243 0.688303 2.37497
ltibia 26.8325
lfoot -1.58976 2.74226
ltoes -14.542
239
root 20.1648 16.8557 5.35678 67.023 -73.7306 -59.5419
lowerback 7.62016 2.51545 3.12248
upperback 2.22817 3.38573 -4.14516
thorax -1.51788 1.66541 -6.36468
lowerneck -15.7969 -5.04602 -11.6665
upperneck -3.20293 -5.49056 17.9588
head 2.54926 -2.23295 7.12507
rclavicle -5.56597e-015 3.18055e-015
rhumerus 54.12 25.6148 -66.3674
rradius 61.8543
rwrist 34.2803
rhand -43.2261 -37.01
rfingers 7.12502
rthumb -16.076 -66.3631
lclavicle -5.56597e-015 3.18055e-015
lhumerus 44.6856 -20.7866 88.6767
lradius 58.4124
lwrist 27.1921
lhand -13.4832 43.6064
lfingers 7.12502
lthumb 12.6274 73.2047
rfemur -12.5704 -3.05682 38.2759
rtibia 46.7744
rfoot -18.5384 -9.22091
rtoes -7.42653
lfemur -45.7186 0.593474 2.36106
ltibia 27.1844
lfoot -1.34789 2.4011
ltoes -14.1642
240
root 19.9745 16.8285 5.38073 66.9371 -73.7217 -59.5063
lowerback 7.69046 2.5951 3.06688
upperback 2.35138 3.48107 -4.24744
thorax -1.41281 1.7164 -6.44814
lowerneck -15.7856 -5.11111 -11.7322
upperneck -3.17842 -5.57609 18.077
head 2.5756 -2.27161 7.16723
rclavicle -1.43125e-014 -3.49861e-014
rhumerus 53.3955 26.5473 -66.3465
rradius 62.1558
rwrist 34.0958
rhand -43.286 -36.9331
rfingers 7.12502
rthumb -16.1338 -66.2816
lclavicle -1.43125e-014 -3.49861e-014
lhumerus 43.2754 -20.7258 89.0544
lradius 59.2029
lwrist 28.2163
lhand -13.4141 43.9158
lfingers 7.12502
lthumb 12.694 73.51
rfemur -12.7736 -3.43085 38.1629
rtibia 48.0308
rfoot -17.9286 -9.24701
rtoes -7.45652
lfemur -45.9095 0.512507 2.30636
ltibia 27.6502
lfoot -1.13477 2.01889
ltoes -13.754
241
root 19.7844 16.8034 5.40537 66.7889 -73.713 -59.409
lowerback 7.76797 2.67276 3.00388
upperback 2.47695 3.57332 -4.34343
thorax -1.31034 1.7657 -6.52088
lowerneck -15.7834 -5.18033 -11.8045
upperneck -3.15091 -5.6659 18.1979
head 2.60542 -2.31178 7.21093
rclavicle -1.66979e-014 4.77083e-014
rhumerus 52.6293 27.5486 -66.3055
rradius 62.4535
rwrist 33.8629
rhand -43.3205 -36.8235
rfingers 7.12502
rthumb -16.167 -66.1693
lclavicle -1.66979e-014 4.77083e-014
lhumerus 41.7738 -20.6557 89.409
lradius 60.0212
lwrist 29.2493
lhand -13.3277 44.2237
lfingers 7.12502
lthumb 12.7773 73.8127
rfemur -13.024 -3.80932 38.0345
rtibia 49.3033
rfoot -17.2519 -9.30565
rtoes -7.40012
lfemur -46.0958 0.445876 2.21253
ltibia 28.2221
lfoot -0.956044 1.60208
ltoes -13.3033
242
root 19.5945 16.7806 5.43059 66.5746 -73.705 -59.246
lowerback 7.84847 2.75185 2.92813
upperback 2.60555 3.66666 -4.43013
thorax -1.20753 1.81544 -6.57668
lowerneck -15.7797 -5.25552 -11.8801
upperneck -3.12624 -5.76283 18.3148
head 2.63529 -2.35568 7.25319
rclavicle 5.56597e-014 1.27222e-014
rhumerus 51.8213 28.6127 -66.2396
rradius 62.7419
rwrist 33.5835
rhand -43.3291 -36.6813
rfingers 7.12502
rthumb -16.1753 -66.0264
lclavicle 5.56597e-014 1.27222e-014
lhumerus 40.1846 -20.5837 89.7464
lradius 60.8623
lwrist 30.2929
lhand -13.2276 44.527
lfingers 7.12502
lthumb 12.8738 74.11
rfemur -13.3205 -4.19187 37.8909
rtibia 50.5848
rfoot -16.5161 -9.3965
rtoes -7.25844
lfemur -46.2753 0.391995 2.07968
ltibia 28.89
lfoot -0.814715 1.15719
ltoes -12.8251
243
root 19.4051 16.7601 5.45628 66.2902 -73.6968 -59.0124
lowerback 7.92565 2.84061 2.83643
upperback 2.73458 3.77185 -4.50639
thorax -1.10253 1.87097 -6.61296
lowerneck -15.7352 -5.33644 -11.9529
upperneck -3.12561 -5.8685 18.4251
head 2.6528 -2.40659 7.29238
rclavicle -2.54444e-014 -3.49861e-014
rhumerus 50.9532 29.7211 -66.1581
rradius 63.0172
rwrist 33.2626
rhand -43.3097 -36.5094
rfingers 7.12502
rthumb -16.1566 -65.856
lclavicle -2.54444e-014 -3.49861e-014
lhumerus 38.5028 -20.5325 90.0753
lradius 61.7202
lwrist 31.3427
lhand -13.1162 44.8245
lfingers 7.12502
lthumb 12.9812 74.4006
rfemur -13.664 -4.58019 37.7338
rtibia 51.8696
rfoot -15.7323 -9.51968
rtoes -7.03739
lfemur -46.4465 0.348755 1.9098
ltibia 29.6449
lfoot -0.715412 0.691143
ltoes -12.3168
244
root 19.2162 16.742 5.4824 65.9403 -73.6882 -58.7114
lowerback 8.01473 2.9236 2.74036
upperback 2.86506 3.86904 -4.57799
thorax -1.00429 1.9221 -6.64198
lowerneck -15.7144 -5.42245 -12.0329
upperneck -3.11521 -5.97935 18.5413
head 2.67846 -2.45857 7.33396
rclavicle -3.26007e-014 3.49861e-014
rhumerus 50.0584 30.8976 -66.0701
rradius 63.2758
rwrist 32.9027
rhand -43.2648 -36.3229
rfingers 7.12502
rthumb -16.1134 -65.673
lclavicle -3.26007e-014 3.49861e-014
lhumerus 36.7469 -20.469 90.3683
lradius 62.5884
lwrist 32.3925
lhand -12.9922 45.1165
lfingers 7.12502
lthumb 13.1007 74.685
rfemur -14.0542 -4.97206 37.565
rtibia 53.15
rfoot -14.914 -9.67379
rtoes -6.73988
lfemur -46.6081 0.314032 1.70654
ltibia 30.4752
lfoot -0.65871 0.212668
ltoes -11.7852
245
root 19.0281 16.7265 5.50884 65.5259 -73.6778 -58.3418
lowerback 8.10713 3.00696 2.6345
upperback 2.99735 3.96605 -4.64074
thorax -0.907392 1.97287 -6.65623
lowerneck -15.6964 -5.51415 -12.1175
upperneck -3.1076 -6.09664 18.6572
head 2.70507 -2.51367 7.37557
rclavicle 7.95139e-015 -3.18055e-014
rhumerus 49.1318 32.1279 -65.975
rradius 63.5114
rwrist 32.5067
rhand -43.1961 -36.1201
rfingers 7.12502
rthumb -16.0472 -65.4756
lclavicle 7.95139e-015 -3.18055e-014
lhumerus 34.9215 -20.4088 90.6349
lradius 63.4591
lwrist 33.4368
lhand -12.8671 45.4045
lfingers 7.12502
lthumb 13.2213 74.9653
rfemur -14.4926 -5.36723 37.3873
rtibia 54.4191
rfoot -14.0772 -9.85905
rtoes -6.3847
lfemur -46.7598 0.286522 1.47386
ltibia 31.3691
lfoot -0.647028 -0.272527
ltoes -11.2364
246
root 18.8409 16.7137 5.5355 65.0473 -73.6651 -57.9031
lowerback 8.20445 3.09037 2.52002
upperback 3.12863 4.06253 -4.69548
thorax -0.815649 2.02293 -6.65747
lowerneck -15.6732 -5.61056 -12.2047
upperneck -3.10632 -6.21975 18.7734
head 2.73029 -2.57207 7.41713
rclavicle 2.22639e-014 7.63333e-014
rhumerus 48.1698 33.4102 -65.8826
rradius 63.7215
rwrist 32.0837
rhand -43.0984 -35.9082
rfingers 7.12502
rthumb -15.9531 -65.2712
lclavicle 2.22639e-014 7.63333e-014
lhumerus 33.0292 -20.3532 90.8754
lradius 64.3273
lwrist 34.47
lhand -12.7387 45.7081
lfingers 7.12502
lthumb 13.345 75.2607
rfemur -14.9786 -5.76617 37.2024
rtibia 55.6696
rfoot -13.2344 -10.0725
rtoes -5.96688
lfemur -46.8993 0.263379 1.21553
ltibia 32.3141
lfoot -0.678886 -0.75925
ltoes -10.6732
247
root 18.6547 16.7035 5.56222 64.5027 -73.6484 -57.3921
lowerback 8.30698 3.17199 2.3978
upperback 3.26106 4.15606 -4.74214
thorax -0.727303 2.07112 -6.64593
lowerneck -15.6582 -5.71265 -12.298
upperneck -3.10636 -6.34906 18.8942
head 2.75811 -2.63308 7.46054
rclavicle 4.85035e-014 2.22639e-014
rhumerus 47.1822 34.7381 -65.7996
rradius 63.9
rwrist 31.6405
rhand -42.9803 -35.6925
rfingers 7.12502
rthumb -15.8394 -65.0646
lclavicle 4.85035e-014 2.22639e-014
lhumerus 31.0836 -20.3015 91.086
lradius 65.1859
lwrist 35.4849
lhand -12.5749 46.0161
lfingers 7.12502
lthumb 13.5029 75.5584
rfemur -15.5109 -6.16869 37.0132
rtibia 56.8926
rfoot -12.3991 -10.3142
rtoes -5.49842
lfemur -47.0251 0.24231 0.935668
ltibia 33.2965
lfoot -0.754677 -1.24556
ltoes -10.0965
248
root 18.4695 16.696 5.58893 63.8942 -73.627 -56.811
lowerback 8.41135 3.25418 2.26558
upperback 3.39284 4.24966 -4.77876
thorax -0.642388 2.11888 -6.61831
lowerneck -15.6326 -5.81898 -12.3939
upperneck -3.11648 -6.48349 19.0142
head 2.78244 -2.69743 7.50369
rclavicle 5.24792e-014 3.49861e-014
rhumerus 46.1625 36.1052 -65.7301
rradius 64.0452
rwrist 31.1812
rhand -42.8407 -35.4804
rfingers 7.12502
rthumb -15.7049 -64.8631
lclavicle 5.24792e-014 3.49861e-014
lhumerus 29.0867 -20.2615 91.2711
lradius 66.0272
lwrist 36.4789
lhand -12.3958 46.3109
lfingers 7.12502
lthumb 13.6756 75.8416
rfemur -16.0871 -6.57565 36.8216
rtibia 58.0799
rfoot -11.5833 -10.5834
rtoes -5.00492
lfemur -47.1326 0.221221 0.638527
ltibia 34.3004
lfoot -0.86987 -1.7289
ltoes -9.51467
249
root 18.2858 16.6913 5.61565 63.2304 -73.5998 -56.1653
lowerback 8.51797 3.33562 2.12816
upperback 3.5229 4.34193 -4.80692
thorax -0.562016 2.16552 -6.57903
lowerneck -15.6034 -5.92977 -12.4934
upperneck -3.13346 -6.62311 19.1362
head 2.80558 -2.76468 7.54758
rclavicle -2.22639e-014 3.18055e-015
rhumerus 45.1119 37.5046 -65.6882
rradius 64.1522
rwrist 30.7143
rhand -42.6829 -35.2712
rfingers 7.12502
rthumb -15.553 -64.6658
lclavicle -2.22639e-014 3.18055e-015
lhumerus 27.0484 -20.2323 91.4321
lradius 66.8428
lwrist 37.4482
lhand -12.2085 46.5924
lfingers 7.12502
lthumb 13.856 76.1108
rfemur -16.7094 -6.9857 36.6294
rtibia 59.2263
rfoot -10.8013 -10.8759
rtoes -4.49128
lfemur -47.2233 0.197676 0.328887
ltibia 35.3135
lfoot -1.02114 -2.20384
ltoes -8.9167
